<svg height="512pt" viewBox="0 -5 512 512" width="512pt" xmlns="http://www.w3.org/2000/svg"><path d="m503.171875 397.246094c-4.875 0-8.828125-3.953125-8.828125-8.828125v-35.3125c0-4.875 3.953125-8.828125 8.828125-8.828125s8.828125 3.953125 8.828125 8.828125v35.3125c0 4.875-3.953125 8.828125-8.828125 8.828125zm0 0" fill="#35495e"/><path d="m467.863281 397.246094c-4.875 0-8.828125-3.953125-8.828125-8.828125v-35.3125c0-4.875 3.953125-8.828125 8.828125-8.828125s8.828125 3.953125 8.828125 8.828125v35.3125c0 4.875-3.953125 8.828125-8.828125 8.828125zm0 0" fill="#35495e"/><path d="m485.515625 335.453125c-4.875 0-8.824219-3.953125-8.824219-8.828125v-97.105469c0-9.75-7.90625-17.65625-17.65625-17.65625h-17.65625c-4.875 0-8.828125-3.949219-8.828125-8.824219 0-4.878906 3.953125-8.828124 8.828125-8.828124h17.65625c19.5 0 35.308594 15.808593 35.308594 35.308593v97.105469c0 4.875-3.949219 8.828125-8.828125 8.828125zm0 0" fill="#4482c3"/><path d="m414.898438 247.175781h-26.484376v-88.277343h26.484376c14.625 0 26.480468 11.859374 26.480468 26.484374v35.308594c0 14.628906-11.855468 26.484375-26.480468 26.484375zm0 0" fill="#35495e"/><path d="m512 353.105469c0 14.625-11.855469 26.484375-26.484375 26.484375-14.625 0-26.480469-11.859375-26.480469-26.484375s11.855469-26.480469 26.480469-26.480469c14.628906 0 26.484375 11.855469 26.484375 26.480469zm0 0" fill="#285680"/><path d="m8.828125 397.246094c-4.875 0-8.828125-3.953125-8.828125-8.828125v-35.3125c0-4.875 3.953125-8.828125 8.828125-8.828125s8.828125 3.953125 8.828125 8.828125v35.3125c0 4.875-3.953125 8.828125-8.828125 8.828125zm0 0" fill="#35495e"/><path d="m44.136719 397.246094c-4.875 0-8.828125-3.953125-8.828125-8.828125v-35.3125c0-4.875 3.953125-8.828125 8.828125-8.828125s8.828125 3.953125 8.828125 8.828125v35.3125c0 4.875-3.953125 8.828125-8.828125 8.828125zm0 0" fill="#35495e"/><path d="m26.484375 335.453125c-4.878906 0-8.828125-3.953125-8.828125-8.828125v-97.105469c0-19.5 15.808594-35.308593 35.308594-35.308593h17.65625c4.875 0 8.828125 3.949218 8.828125 8.828124 0 4.875-3.953125 8.824219-8.828125 8.824219h-17.65625c-9.75 0-17.65625 7.90625-17.65625 17.65625v97.105469c0 4.875-3.949219 8.828125-8.824219 8.828125zm0 0" fill="#4482c3"/><path d="m97.101562 158.898438h26.484376v88.277343h-26.484376c-14.625 0-26.480468-11.855469-26.480468-26.484375v-35.308594c0-14.625 11.855468-26.484374 26.480468-26.484374zm0 0" fill="#35495e"/><path d="m52.964844 353.105469c0 14.625-11.855469 26.484375-26.480469 26.484375-14.628906 0-26.484375-11.859375-26.484375-26.484375s11.855469-26.480469 26.484375-26.480469c14.625 0 26.480469 11.855469 26.480469 26.480469zm0 0" fill="#285680"/><path d="m158.898438 406.070312c0 53.628907 43.472656 97.105469 97.101562 97.105469s97.101562-43.476562 97.101562-97.105469zm0 0" fill="#4482c3"/><path d="m355.929688 41.316406c-40.425782-40.359375-101.171876-52.414062-153.945313-30.546875-52.773437 21.863281-87.191406 73.351563-87.226563 130.476563v238.34375c0 19.5 15.808594 35.308594 35.3125 35.308594h211.859376c19.503906 0 35.3125-15.808594 35.3125-35.308594v-238.34375c.042968-37.476563-14.820313-73.425782-41.3125-99.929688zm0 0" fill="#285680"/><path d="m338.539062 73.800781c-3.019531-3.695312-6.328124-7.148437-9.886718-10.328125-31.105469-28.667968-76.238282-36.199218-114.964844-19.179687s-63.703125 55.355469-63.617188 97.65625v58.175781c-.015624 4.753906 1.675782 9.359375 4.765626 12.976562 2.152343 2.558594 4.875 4.585938 7.945312 5.914063 2.6875 1.105469 5.566406 1.675781 8.472656 1.675781h169.492188c5.539062.09375 10.886718-2.023437 14.863281-5.882812s6.25-9.144532 6.320313-14.683594v-61.792969c-.003907-23.585937-8.28125-46.421875-23.390626-64.53125zm0 0" fill="#90bae1"/><path d="m114.757812 256.003906h282.484376v35.308594h-282.484376zm0 0" fill="#4482c3"/><path d="m328.652344 63.472656c-116.613282 13.949219-160.664063 110.523438-173.816406 149.628906-3.089844-3.617187-4.78125-8.222656-4.765626-12.976562v-58.175781c-.085937-42.300781 24.890626-80.636719 63.617188-97.65625s83.859375-9.488281 114.964844 19.179687zm0 0" fill="#b0d3f0"/><g fill="#2c3e50"><path d="m203.035156 353.105469c0 14.625-11.855468 26.484375-26.484375 26.484375-14.625 0-26.480469-11.859375-26.480469-26.484375s11.855469-26.480469 26.480469-26.480469c14.628907 0 26.484375 11.855469 26.484375 26.480469zm0 0"/><path d="m157.835938 343.21875c-2.339844 0-4.585938-.929688-6.238282-2.585938l-7.769531-7.769531c-3.34375-3.460937-3.296875-8.96875.105469-12.375 3.40625-3.402343 8.914062-3.453125 12.375-.105469l7.769531 7.769532c2.523437 2.523437 3.277344 6.320312 1.914063 9.617187-1.367188 3.296875-4.585938 5.449219-8.15625 5.449219zm0 0"/><path d="m203.035156 388.417969c-2.339844 0-4.585937-.933594-6.242187-2.585938l-7.769531-7.769531c-3.34375-3.464844-3.296876-8.96875.109374-12.375s8.910157-3.453125 12.375-.109375l7.769532 7.769531c2.523437 2.523438 3.277344 6.320313 1.910156 9.621094-1.363281 3.296875-4.582031 5.445312-8.152344 5.449219zm0 0"/><path d="m353.101562 361.933594h-17.652343c-4.875 0-8.828125-3.953125-8.828125-8.828125v-17.652344c0-4.878906 3.953125-8.828125 8.828125-8.828125h17.652343c4.878907 0 8.828126 3.949219 8.828126 8.828125v17.652344c0 4.875-3.949219 8.828125-8.828126 8.828125zm0 0"/><path d="m291.308594 335.453125h-8.824219c-4.878906 0-8.828125-3.953125-8.828125-8.828125s3.949219-8.828125 8.828125-8.828125h8.824219c4.878906 0 8.828125 3.953125 8.828125 8.828125s-3.949219 8.828125-8.828125 8.828125zm0 0"/><path d="m291.308594 370.761719h-8.824219c-4.878906 0-8.828125-3.953125-8.828125-8.828125s3.949219-8.828125 8.828125-8.828125h8.824219c4.878906 0 8.828125 3.953125 8.828125 8.828125s-3.949219 8.828125-8.828125 8.828125zm0 0"/></g><path d="m238.34375 97.105469c0 9.75-7.902344 17.65625-17.652344 17.65625-9.753906 0-17.65625-7.90625-17.65625-17.65625s7.902344-17.652344 17.65625-17.652344c9.75 0 17.652344 7.902344 17.652344 17.652344zm0 0" fill="#2c2f38"/><path d="m308.964844 97.105469c0 9.75-7.902344 17.65625-17.65625 17.65625-9.75 0-17.652344-7.90625-17.652344-17.65625s7.902344-17.652344 17.652344-17.652344c9.753906 0 17.65625 7.902344 17.65625 17.652344zm0 0" fill="#2c2f38"/><path d="m361.929688 167.726562h-92.335938l-15.09375 22.511719c-1.625 2.464844-4.375 3.957031-7.328125 3.972657-.296875.011718-.59375-.015626-.882813-.089844-3.285156-.28125-6.125-2.402344-7.328124-5.472656l-11.386719-28.511719-8.386719 12.445312c-1.621094 2.464844-4.371094 3.957031-7.324219 3.972657h-61.792969v-17.65625h57.023438l15.097656-22.507813c1.8125-2.726563 4.988282-4.226563 8.246094-3.894531 3.257812.335937 6.066406 2.445312 7.289062 5.480468l11.386719 28.515626 8.386719-12.449219c1.625-2.464844 4.375-3.957031 7.328125-3.972657h97.101563zm0 0" fill="#c03a2b"/><path d="m282.484375 459.039062c0-9.753906-11.859375-17.65625-26.484375-17.65625s-26.484375 7.902344-26.484375 17.65625c0 9.75 11.859375 17.652344 26.484375 17.652344s26.484375-7.902344 26.484375-17.652344zm0 0" fill="#2c3e50"/></svg>